<svg width="128" height="128" viewBox="0 0 128 128" fill="none" xmlns="http://www.w3.org/2000/svg">
<path d="M0 0C42.24 0 84.48 0 128 0C128 42.24 128 84.48 128 128C85.76 128 43.52 128 0 128C0 85.76 0 43.52 0 0Z" fill="#B91F24"/>
<path d="M87.8913 17.1571C98.4748 23.9359 105.652 33.2503 108.691 45.5208C110.627 59.2619 108.847 72.2767 100.715 83.7481C98.4844 86.8944 93.9564 91.4599 90.1227 95.0632C80.9312 103.703 74.8502 106.567 65.8416 112.053C64.7195 112.736 54.9932 117.473 53.8063 117.473C57.6708 111.799 59.9385 108.479 62.1458 103.703C62.9023 102.066 62.8946 102.081 63.3094 100.212C62.1664 100.207 62.1664 100.207 61.0003 100.203C49.8378 99.7296 40.1501 95.8812 31.964 88.1389C22.0216 77.108 18.2726 65.9155 18.614 51.0889C19.9216 39.0216 26.2172 28.0368 35.4549 20.2162C51.9917 8.37467 70.1601 7.42661 87.8913 17.1571Z" fill="#FEFDFD"/>
</svg>
